<?xml version="1.0" encoding="utf-8"?>
<!-- Generator: Adobe Illustrator 23.0.3, SVG Export Plug-In . SVG Version: 6.00 Build 0)  -->
<svg version="1.1" id="Layer_1" xmlns="http://www.w3.org/2000/svg" xmlns:xlink="http://www.w3.org/1999/xlink" x="0px" y="0px"
	 viewBox="0 0 500 252.6" style="enable-background:new 0 0 500 252.6;" xml:space="preserve">
<style type="text/css">
	.st0{fill:#FFFFFF;}
	.st1{fill:#A086BE;}
	.st2{fill:#010202;}
</style>
<path class="st0" d="M77.5,132.6l71.4,71.4l11.7-11.7l-57.8-57.7h322V118H103.8l57.8-57.7l-11.7-11.7l-72.3,72.3
	c-1.5,1.5-2.4,3.6-2.4,5.8C75.1,129,76,131.1,77.5,132.6z"/>
<path class="st1" d="M77.5,132.6l71.4,71.4l11.7-11.7l-57.8-57.7h322V118H103.8l57.8-57.7l-11.7-11.7l-72.3,72.3
	c-1.5,1.5-2.4,3.6-2.4,5.8C75.1,129,76,131.1,77.5,132.6z"/>
</svg>
