<?xml version="1.0" encoding="utf-8"?><svg id="Layer_1" data-name="Layer 1" xmlns="http://www.w3.org/2000/svg" viewBox="0 0 500 500"><defs><style>.cls-1{fill:#1d1d1b;}</style></defs><title>CV icon - B</title><path class="cls-1" d="M98.22,98.22V401.78H401.78V98.22Zm85,214.36c-46.62,0-66.75-26.66-66.75-62.58,0-33.19,22.3-62.58,68.39-62.58,32.28,0,53.32,15.42,55,48.25L203.89,242c0-12-6.36-19.77-17-19.77-14.52,0-19.23,13.42-19.23,27.75s4.16,27.75,19.58,27.75c12.88,0,17.79-9.42,19.41-20.13l35.75,9.07C240.9,290.63,220,312.58,183.21,312.58Zm158.43-2.17H289.76L243.68,189.6h53.88l21.95,67.3,21.95-67.3h42.08Z"/></svg>