<svg id="Layer_1" data-name="Layer 1" xmlns="http://www.w3.org/2000/svg" viewBox="0 0 500 500"><defs><style>.cls-1{fill:#1d1d1b;}</style></defs><title>CV icon v2 B</title><path class="cls-1" d="M98.22,98.22V401.78H401.78V98.22ZM226.14,308q-14.49,12.4-39.7,12.4-26.88,0-42.72-18.76-16-19.17-16-52.1,0-33.33,16.47-52.1,15.83-17.91,41.67-17.92a69.66,69.66,0,0,1,21.68,3A49.54,49.54,0,0,1,223.33,191q13.13,10.64,17.08,29.8l-26.25,4.8a39.25,39.25,0,0,0-10.32-17.2,24.44,24.44,0,0,0-17.4-6.56q-14.17,0-22.93,11.88-9.37,12.93-9.37,35.74t8.33,35.63q8.34,12.83,22.72,12.82t21.67-7q7.29-7,7.3-18h26.46Q240.62,295.65,226.14,308Zm99.72,9.48H300L254.17,182.27h26.05l32.93,104.41,33.34-104.41h25.84Z"/></svg>