<?xml version="1.0" encoding="utf-8"?><svg id="Layer_1" data-name="Layer 1" xmlns="http://www.w3.org/2000/svg" viewBox="0 0 500 500"><title>Instagram icon - B</title><g id="rfWhhm.tif"><path d="M241.78,99.28H258.3a2.51,2.51,0,0,0,1,.1c10.05.07,20.1-.08,30.14.13,6.63.13,13.25.31,19.87.61,4,.18,7.93.39,11.89.78a111.75,111.75,0,0,1,15.73,2.62c13.7,3.37,26.06,9.3,36.43,19.06a76.46,76.46,0,0,1,17.59,24.23,101.6,101.6,0,0,1,8.19,31.52c.47,4.51.69,9,.9,13.56q.28,6.42.45,12.84c.1,4.15.17,8.31.18,12.46q0,19.62,0,39.25c0,13.56.14,27.12-.29,40.69q-.25,7.78-.61,15.58-.31,6.82-1.24,13.6a99.86,99.86,0,0,1-4.63,19.44A77.29,77.29,0,0,1,370.43,380a79.54,79.54,0,0,1-29,15.33,120.18,120.18,0,0,1-27.23,4.41c-4.47.26-8.95.44-13.43.59s-9,.23-13.54.3c-10.86.16-21.72,0-32.58.12-4.39.06-8.77-.05-13.16-.06-12.85-.05-25.7.12-38.55-.29-4.05-.13-8.1-.3-12.14-.46s-7.94-.39-11.89-.77a110.88,110.88,0,0,1-15.14-2.49c-13.19-3.17-25.23-8.64-35.44-17.76a76.51,76.51,0,0,1-17.26-21.76c-6-11.58-9-24-10.26-36.94-.39-4-.56-8-.75-12.05-.2-4.3-.36-8.61-.45-12.91q-.17-7.84-.19-15.68c0-8.44,0-16.88,0-25.32,0-.43,0-.86-.07-1.3V247.1c0-.38.07-.76.07-1.14.09-16-.19-32,.47-48q.21-5.27.45-10.53c.18-4.18.55-8.33,1.08-12.48a105.66,105.66,0,0,1,4.16-18.84,77.35,77.35,0,0,1,22.3-34.53,78.93,78.93,0,0,1,31.33-17,120.77,120.77,0,0,1,26.49-4.24c4.6-.29,9.21-.46,13.82-.61,4.41-.15,8.82-.26,13.23-.29,9.3,0,18.61,0,27.92-.06A2.93,2.93,0,0,0,241.78,99.28ZM126.76,250c.06,13.1-.12,26.21.12,39.32q.16,9.59.6,19.17c.18,3.74.38,7.48.79,11.2A85.09,85.09,0,0,0,131,333.85a50.82,50.82,0,0,0,15.66,24.8A51.75,51.75,0,0,0,166.2,369c7.69,2.31,15.61,3.12,23.59,3.51,3.48.18,7,.35,10.46.45,5,.14,10,.29,15.06.31q24,.08,48.05,0c8,0,16,.06,23.94-.1,6-.12,11.92-.21,17.88-.49,3.82-.18,7.63-.3,11.44-.63a91.58,91.58,0,0,0,13.28-2,55.74,55.74,0,0,0,18.52-7.74,49.94,49.94,0,0,0,19.86-26.12,88,88,0,0,0,4.1-23c.28-4.44.47-8.9.61-13.36.16-5,.29-10,.31-15.06q.07-17.2,0-34.43c0-13.21.09-26.42-.14-39.62q-.17-9.6-.61-19.18c-.17-3.72-.37-7.42-.78-11.12a82.49,82.49,0,0,0-3.23-15.69,49.89,49.89,0,0,0-32.79-33.11,88.83,88.83,0,0,0-22.51-3.94c-4.5-.29-9-.48-13.51-.61q-8.56-.25-17.13-.32-9.4-.08-18.82,0c-21.75.1-43.5-.31-65.25.46-4.32.15-8.65.32-13,.6a93.56,93.56,0,0,0-14.73,2,56.46,56.46,0,0,0-18.07,7.07,49.9,49.9,0,0,0-21.33,27.89c-2.57,8.14-3.52,16.51-3.94,25-.17,3.48-.35,7-.45,10.46-.14,4.94-.28,9.89-.3,14.83C126.73,226.7,126.76,238.35,126.76,250Z"/><path d="M250.07,172.55A77.44,77.44,0,1,1,172.61,250,77.39,77.39,0,0,1,250.07,172.55ZM251.59,300c27.44-.55,51.26-24.74,48.28-55.21A50.09,50.09,0,1,0,251.59,300Z"/><path d="M330.41,187.78a18.16,18.16,0,1,1,18.18-18.18A18.14,18.14,0,0,1,330.41,187.78Z"/></g></svg>