<?xml version="1.0" encoding="utf-8"?><svg id="Layer_1" data-name="Layer 1" xmlns="http://www.w3.org/2000/svg" viewBox="0 0 500 500"><defs><style>.cls-1{fill:#fff;}</style></defs><title>LinkedIn icon - W</title><path class="cls-1" d="M112.09,163.82c6.69,4.76,14.28,6.64,22.69,6.49,1.68-.1,3.63,0,5.59-.27,9.34-1.2,17.4-4.85,23.52-12.2a32,32,0,0,0,7.35-19.44,34.06,34.06,0,0,0-1.64-12.11c-2.81-8.89-8.37-15.58-16.83-19.44-11-5-22.25-5.07-33.48-.91a30.77,30.77,0,0,0-18,16.78,33.93,33.93,0,0,0-2.37,20.15A31.4,31.4,0,0,0,112.09,163.82Z"/><path class="cls-1" d="M103,394.93c0,2.12,0,2.12,2.13,2.13h62.35c2.09,0,2.1,0,2.09-2.15-.13-19.78,0-39.55-.16-59.33-.24-22.61,0-45.22,0-67.82h-.07V199c0-2,0-2-2-2h-62.9c-1.93,0-1.95,0-1.93,1.88.1,9.48.08,19,.15,28.43.33,47.17-.15,94.34.32,141.51C103.08,377.52,103,386.23,103,394.93Z"/><path class="cls-1" d="M400.26,260.06c-1.69-11.63-4.91-22.76-10.72-33a64.27,64.27,0,0,0-26.58-26c-10-5.24-20.82-7.58-32-8.11a80.51,80.51,0,0,0-19.16,1.32,57.92,57.92,0,0,0-30.07,15.39,79.58,79.58,0,0,0-11,13.55,3.68,3.68,0,0,1-1.34,1.59,6,6,0,0,1-.41-2.67c-.09-7.79.05-15.58-.29-23.37-.08-1.71-.06-1.75-1.81-1.75H203.12c-1.83,0-1.87,0-1.88,1.81,0,.46,0,.91,0,1.37.16,42.3-.15,84.6.21,126.91.2,22.61.07,45.22.09,67.83,0,2.13,0,2.14,2.11,2.14H267c2.2,0,2.21,0,2.21-2.17q0-56.62,0-113.25a38.08,38.08,0,0,1,5-19.72c3.51-6,7.94-11.09,14.22-14.35,6.75-3.51,13.89-4.3,21.34-3.21,9.9,1.44,16.61,6.87,20.47,16,3.22,7.6,4.28,15.63,4.3,23.75.1,36.88.05,73.76.05,110.65,0,2.29,0,2.3,2.35,2.3h62.5c2.27,0,2.28,0,2.28-2.25q0-56.76,0-113.52A147.75,147.75,0,0,0,400.26,260.06Z"/></svg>