<svg id="Layer_1" data-name="Layer 1" xmlns="http://www.w3.org/2000/svg" viewBox="0 0 1263.51 138.48"><title>Logo icon - B</title><path d="M106.49,98.41V69.1L97.26,98.41H84.84L75.4,69.1V98.41H60.5V51.14H83.78l7.88,22.64,7.16-22.64h26.83V98.41Z"/><path d="M188.4,98.41H168.17L166,91.81h-17L147,98.41H131.33l17.46-47.27h22.08ZM152.34,81.73h10.51L157.6,65.34Z"/><path d="M228.93,77a17.06,17.06,0,0,1,2-.08c6.68,0,9.16,3.06,10.93,9.87,1.21,4.69,2.06,8.09,5.4,11.64H226a20.29,20.29,0,0,1-3.91-8c-.71-2.41-1.56-6.25-2.2-7.95s-1.35-2.27-2.84-2.27h-4.11V98.41H193.72V51.14H222.4c15.4,0,21.93,5.33,21.93,12.78C244.33,69.67,241.06,75.63,228.93,77Zm-8.88-12.42h-7.16v7.87h6.45c3.62,0,5.82-1.56,5.82-4.11C225.16,66.19,223.53,64.56,220.05,64.56Z"/><path d="M252.56,98.41V51.14h19.17V68l12.06-16.89h20.87L290.61,70.38l14.55,28H282.59l-7-14.83L271.73,89v9.37Z"/><path d="M332.13,99.26c-18,0-27.4-11.5-27.4-24.48s9.37-24.49,27.4-24.49,27.4,11.5,27.4,24.49S350.16,99.26,332.13,99.26Zm0-35.34c-5.68,0-7.52,5.25-7.52,10.86s1.84,10.85,7.52,10.85,7.52-5.25,7.52-10.85S337.81,63.92,332.13,63.92Z"/><path d="M398.07,98.41h-20.3l-18-47.27h21.08l8.59,26.33L398,51.14h16.46Z"/><path d="M467.13,98.41H446.9l-2.13-6.6h-17l-2.06,6.6H410.06l17.46-47.27H449.6ZM431.07,81.73h10.51l-5.26-16.39Z"/><path d="M502.05,71.65c0-4.68-2.49-7.73-6.67-7.73-5.68,0-7.53,5.25-7.53,10.86s1.63,10.85,7.67,10.85c5,0,7-3.69,7.59-7.87l14,3.54c-.56,9.37-8.73,18-23.14,18-18.24,0-26.11-10.43-26.11-24.48,0-13,8.73-24.49,26.75-24.49,12.64,0,20.87,6,21.51,18.88ZM503.39,48H485.86l-5.11-8.31h12.14l1.78,4.69,1.84-4.69h12.14Z"/><path d="M523.48,98.41V51.14h41V64.06H542.65v5.11h17.1V79.81h-17.1v5.68h22.21V98.41Z"/><path d="M608.16,98.41h-20.3l-18-47.27h21.08l8.59,26.33,8.59-26.33h16.47Z"/><path d="M630.09,98.41V51.14h19.17V98.41Z"/><path d="M690.21,71.65c0-4.68-2.48-7.73-6.67-7.73-5.68,0-7.53,5.25-7.53,10.86s1.64,10.85,7.67,10.85c5,0,7-3.69,7.59-7.87l14,3.54c-.56,9.37-8.73,18-23.13,18C663.88,99.26,656,88.83,656,74.78c0-13,8.73-24.49,26.76-24.49,12.63,0,20.86,6,21.5,18.88Zm-2-23.63h-12l2.91-8.8h16Z"/><path d="M781.84,67.44a12,12,0,0,1,7.86,2.44,12.33,12.33,0,0,1,4.09,6.37l-4.11.82a9.65,9.65,0,0,0-3-4.53,7.41,7.41,0,0,0-4.81-1.67,7.76,7.76,0,0,0-6.34,3.2Q773,77.27,773,83a16.42,16.42,0,0,0,2.25,9.12,7.41,7.41,0,0,0,6.61,3.44,8.21,8.21,0,0,0,5.73-1.91,6.49,6.49,0,0,0,2.11-5.06h4.11a9.54,9.54,0,0,1-3.26,7.6q-3.27,2.81-9,2.8a11.24,11.24,0,0,1-9.19-4.35c-2.34-2.91-3.51-6.79-3.51-11.67s1.21-8.67,3.63-11.39A11.9,11.9,0,0,1,781.84,67.44Z"/><path d="M822.15,76.68a9,9,0,0,1-2,6.1,9.69,9.69,0,0,1-5.93,3l8.71,12.63H818L810.1,86h-5.32V98.41H801V68h10.6q5.13,0,7.86,2.47A8,8,0,0,1,822.15,76.68Zm-10.89,6.63a7.32,7.32,0,0,0,5.2-1.67,5.76,5.76,0,0,0,1.77-4.4,5.7,5.7,0,0,0-1.72-4.36,7,7,0,0,0-5-1.62h-6.77v12Z"/><path d="M830.57,68H849.3v3.29H834.39V81.47h14v3.24h-14V95.07H849.3v3.34H830.57Z"/><path d="M864.64,68h4.65L879.5,98.41h-4l-2.62-7.74H860.82l-2.62,7.74h-4Zm-2.81,19.7H872l-5-15Z"/><path d="M879.11,68h23.66v3.29h-9.92V98.41H889V71.26h-9.92Z"/><path d="M908,68h3.82V98.41H908Z"/><path d="M921.5,68l8.71,25.6L939,68h4L932.2,98.41h-4L917.48,68Z"/><path d="M948.7,68h18.73v3.29H952.52V81.47h14v3.24h-14V95.07h14.91v3.34H948.7Z"/><path d="M996.37,68q6.87,0,11,4.14t4.14,11.08q0,6.94-4.14,11.08t-11,4.14h-9V68Zm-5.13,27.1h5.13a10.29,10.29,0,0,0,8.08-3.36,12.35,12.35,0,0,0,3-8.54,12.14,12.14,0,0,0-3-8.5,10.39,10.39,0,0,0-8.06-3.31h-5.13Z"/><path d="M1019.4,68h18.74v3.29h-14.91V81.47h14v3.24h-14V95.07h14.91v3.34H1019.4Z"/><path d="M1062.87,75.38q-.82-4.45-6.54-4.46a7.32,7.32,0,0,0-4.69,1.33,4,4,0,0,0-1.65,3.2,3.73,3.73,0,0,0,1,2.83A8.61,8.61,0,0,0,1054.3,80l6.34,2.18a13,13,0,0,1,5.15,3,7.38,7.38,0,0,1,1.91,5.44,7.3,7.3,0,0,1-3,5.91,12.55,12.55,0,0,1-8,2.39,12.87,12.87,0,0,1-8.25-2.54,8.83,8.83,0,0,1-3.32-7.14h3.73a5.41,5.41,0,0,0,2.11,4.6,8.67,8.67,0,0,0,5.41,1.6,8.45,8.45,0,0,0,5.26-1.48,4.28,4.28,0,0,0,1.93-3.48,4.22,4.22,0,0,0-1.18-3.17,9,9,0,0,0-3.51-1.94l-5.37-2a16.33,16.33,0,0,1-5.72-3,6.51,6.51,0,0,1-1.93-5.11,7,7,0,0,1,2.71-5.61q2.71-2.25,7.6-2.25t7.47,2.15a8.38,8.38,0,0,1,3,5.79Z"/><path d="M1075.93,68h3.82V98.41h-3.82Z"/><path d="M1108.31,93.18q-2,5.76-7.89,5.76a12.22,12.22,0,0,1-9.61-4.26q-3.75-4.26-3.75-11.47c0-4.8,1.36-8.63,4.09-11.46a13.55,13.55,0,0,1,10.19-4.26,12.92,12.92,0,0,1,6.26,1.45,12.46,12.46,0,0,1,4.63,4.64l-3.68,1.26q-3.15-3.91-7.36-3.92a9.06,9.06,0,0,0-7.14,3.44,13.28,13.28,0,0,0-2.92,8.93,14.36,14.36,0,0,0,2.51,8.83,8.07,8.07,0,0,0,6.78,3.34,7.28,7.28,0,0,0,5.61-2.32q2.13-2.33,2.13-6.88v-.09l-7.65-.29V83.36h11.38v15h-3.1Z"/><path d="M1125.15,68l15.1,24.44V68h3.82V98.41h-4.26l-15.34-24.78V98.41h-3.87V68Z"/><path d="M1153.8,68h18.73v3.29h-14.91V81.47h14v3.24h-14V95.07h14.91v3.34H1153.8Z"/><path d="M1202.24,76.68a9,9,0,0,1-2,6.1,9.66,9.66,0,0,1-5.92,3L1203,98.41h-4.94L1190.19,86h-5.32V98.41h-3.82V68h10.59q5.13,0,7.87,2.47A8,8,0,0,1,1202.24,76.68Zm-10.89,6.63a7.3,7.3,0,0,0,5.2-1.67,5.76,5.76,0,0,0,1.77-4.4,5.7,5.7,0,0,0-1.72-4.36,6.94,6.94,0,0,0-5-1.62h-6.77v12Z"/></svg>