<?xml version="1.0" encoding="utf-8"?><svg id="Layer_1" data-name="Layer 1" xmlns="http://www.w3.org/2000/svg" viewBox="0 0 763.51 205.76"><defs><style>.cls-1{fill:#000100;}</style></defs><title>Logo Mob B</title><path class="cls-1" d="M105.37,96.71V67.4L96.14,96.71H83.72L74.28,67.4V96.71H59.38V49.44H82.66l7.88,22.65L97.7,49.44h26.83V96.71Z"/><path class="cls-1" d="M187.28,96.71H167.05l-2.13-6.6H148l-2.06,6.6H130.21l17.46-47.27h22.08ZM151.22,80h10.51l-5.25-16.39Z"/><path class="cls-1" d="M227.81,75.28a19.48,19.48,0,0,1,2-.07c6.68,0,9.16,3.05,10.94,9.86,1.2,4.69,2.05,8.1,5.39,11.64H224.83a20.22,20.22,0,0,1-3.91-7.95c-.71-2.41-1.56-6.24-2.2-7.94s-1.35-2.28-2.84-2.28h-4.11V96.71H192.6V49.44h28.68c15.4,0,21.93,5.33,21.93,12.78C243.21,68,239.94,73.93,227.81,75.28Zm-8.88-12.42h-7.16v7.88h6.46c3.61,0,5.82-1.56,5.82-4.12C224.05,64.49,222.41,62.86,218.93,62.86Z"/><path class="cls-1" d="M251.45,96.71V49.44h19.16v16.9l12.07-16.9h20.86L289.49,68.68l14.55,28H281.47l-7-14.83-3.9,5.47v9.36Z"/><path class="cls-1" d="M331,97.57c-18,0-27.39-11.5-27.39-24.49S313,48.59,331,48.59s27.4,11.5,27.4,24.49S349,97.57,331,97.57Zm0-35.35c-5.68,0-7.52,5.25-7.52,10.86s1.84,10.86,7.52,10.86,7.52-5.25,7.52-10.86S336.69,62.22,331,62.22Z"/><path class="cls-1" d="M397,96.71h-20.3l-18-47.27H379.7l8.59,26.34,8.59-26.34h16.46Z"/><path class="cls-1" d="M466,96.71H445.78l-2.13-6.6h-17l-2.06,6.6H408.94L426.4,49.44h22.08ZM430,80h10.51l-5.25-16.39Z"/><path class="cls-1" d="M500.93,70c0-4.69-2.49-7.74-6.67-7.74-5.68,0-7.53,5.25-7.53,10.86s1.63,10.86,7.67,10.86c5,0,7-3.69,7.59-7.88l14,3.55c-.56,9.37-8.73,18-23.13,18-18.25,0-26.12-10.44-26.12-24.49,0-13,8.73-24.49,26.76-24.49,12.63,0,20.86,6,21.5,18.88Zm1.35-23.64H484.75L479.63,38h12.14l1.78,4.68L495.39,38h12.14Z"/><path class="cls-1" d="M522.37,96.71V49.44h41V62.36H541.53v5.11h17.1V78.12h-17.1V83.8h22.21V96.71Z"/><path class="cls-1" d="M607,96.71h-20.3l-18-47.27h21.08l8.59,26.34L607,49.44h16.47Z"/><path class="cls-1" d="M629,96.71V49.44h19.17V96.71Z"/><path class="cls-1" d="M689.09,70c0-4.69-2.48-7.74-6.67-7.74-5.68,0-7.52,5.25-7.52,10.86s1.63,10.86,7.66,10.86c5,0,7-3.69,7.59-7.88l14,3.55c-.57,9.37-8.73,18-23.14,18-18.24,0-26.12-10.44-26.12-24.49,0-13,8.73-24.49,26.76-24.49,12.63,0,20.86,6,21.5,18.88Zm-2-23.64h-12l2.91-8.8h16Z"/><path class="cls-1" d="M73.64,136.73a12,12,0,0,1,7.86,2.45,12.35,12.35,0,0,1,4.09,6.36l-4.11.82a9.69,9.69,0,0,0-3-4.52,7.41,7.41,0,0,0-4.81-1.67,7.73,7.73,0,0,0-6.34,3.19q-2.52,3.19-2.52,8.88T67,161.37a7.39,7.39,0,0,0,6.61,3.43,8.16,8.16,0,0,0,5.73-1.91,6.48,6.48,0,0,0,2.11-5.06h4.11a9.49,9.49,0,0,1-3.27,7.6c-2.17,1.87-5.16,2.81-8.95,2.81a11.23,11.23,0,0,1-9.19-4.36q-3.51-4.35-3.51-11.66t3.63-11.4A11.94,11.94,0,0,1,73.64,136.73Z"/><path class="cls-1" d="M114,146a9,9,0,0,1-2,6.09,9.75,9.75,0,0,1-5.93,3l8.71,12.63h-4.93l-7.89-12.44H96.58v12.44H92.75V137.27h10.6q5.13,0,7.86,2.46A8,8,0,0,1,114,146Zm-10.89,6.63a7.32,7.32,0,0,0,5.2-1.67,5.79,5.79,0,0,0,1.77-4.41,5.72,5.72,0,0,0-1.72-4.35,7,7,0,0,0-5-1.62H96.58v12.05Z"/><path class="cls-1" d="M122.37,137.27H141.1v3.29H126.19v10.21h14V154h-14v10.36H141.1v3.34H122.37Z"/><path class="cls-1" d="M156.44,137.27h4.64l10.22,30.44h-4L164.71,160H152.62L150,167.71h-4ZM153.63,157h10.12l-5-15Z"/><path class="cls-1" d="M170.91,137.27h23.66v3.29h-9.92v27.15h-3.82V140.56h-9.92Z"/><path class="cls-1" d="M199.75,137.27h3.82v30.44h-3.82Z"/><path class="cls-1" d="M213.3,137.27l8.71,25.6,8.76-25.6h4L224,167.71h-4l-10.75-30.44Z"/><path class="cls-1" d="M240.5,137.27h18.73v3.29H244.32v10.21h14V154h-14v10.36h14.91v3.34H240.5Z"/><path class="cls-1" d="M288.17,137.27q6.87,0,11,4.13t4.13,11.09q0,6.94-4.13,11.08t-11,4.14h-9V137.27ZM283,164.37h5.13a10.26,10.26,0,0,0,8.08-3.37,12.35,12.35,0,0,0,3-8.54,12.1,12.1,0,0,0-3-8.49,10.36,10.36,0,0,0-8.05-3.32H283Z"/><path class="cls-1" d="M311.2,137.27h18.73v3.29H315v10.21h14V154H315v10.36h14.9v3.34H311.2Z"/><path class="cls-1" d="M354.66,144.67c-.55-3-2.72-4.45-6.53-4.45a7.26,7.26,0,0,0-4.69,1.33,4,4,0,0,0-1.65,3.19,3.7,3.7,0,0,0,1,2.83,8.53,8.53,0,0,0,3.29,1.7l6.34,2.18a13,13,0,0,1,5.15,3,7.4,7.4,0,0,1,1.91,5.45,7.27,7.27,0,0,1-3,5.9,12.49,12.49,0,0,1-8,2.4,12.91,12.91,0,0,1-8.25-2.54,8.86,8.86,0,0,1-3.32-7.14h3.73a5.42,5.42,0,0,0,2.11,4.6,8.71,8.71,0,0,0,5.41,1.59,8.53,8.53,0,0,0,5.26-1.47,4.42,4.42,0,0,0,.75-6.66,9,9,0,0,0-3.51-1.93l-5.37-2a16.24,16.24,0,0,1-5.72-3,6.5,6.5,0,0,1-1.93-5.1,7,7,0,0,1,2.71-5.62q2.71-2.25,7.6-2.25t7.47,2.16a8.33,8.33,0,0,1,3,5.78Z"/><path class="cls-1" d="M367.73,137.27h3.82v30.44h-3.82Z"/><path class="cls-1" d="M400.11,162.48q-2,5.76-7.89,5.76a12.22,12.22,0,0,1-9.61-4.26q-3.75-4.26-3.75-11.47T383,141a13.55,13.55,0,0,1,10.19-4.26,13.06,13.06,0,0,1,6.26,1.45,12.4,12.4,0,0,1,4.62,4.65l-3.67,1.26q-3.15-3.91-7.36-3.92a9,9,0,0,0-7.14,3.43,13.3,13.3,0,0,0-2.92,8.93,14.32,14.32,0,0,0,2.51,8.83,8,8,0,0,0,6.78,3.34,7.24,7.24,0,0,0,5.61-2.32q2.13-2.33,2.13-6.87v-.1l-7.65-.29v-2.51h11.38v15.05h-3.1Z"/><path class="cls-1" d="M417,137.27l15.1,24.44V137.27h3.82v30.44h-4.26l-15.34-24.78v24.78H412.4V137.27Z"/><path class="cls-1" d="M445.6,137.27h18.73v3.29H449.42v10.21h14V154h-14v10.36h14.91v3.34H445.6Z"/><path class="cls-1" d="M494,146a9,9,0,0,1-2,6.09,9.75,9.75,0,0,1-5.93,3l8.72,12.63h-4.94L482,155.27h-5.32v12.44h-3.83V137.27h10.6q5.13,0,7.87,2.46A8.07,8.07,0,0,1,494,146Zm-10.89,6.63a7.3,7.3,0,0,0,5.2-1.67,5.79,5.79,0,0,0,1.77-4.41,5.68,5.68,0,0,0-1.72-4.35,7,7,0,0,0-5-1.62h-6.77v12.05Z"/></svg>