<svg id="Layer_1" data-name="Layer 1" xmlns="http://www.w3.org/2000/svg" viewBox="0 0 763.51 121.92"><defs><style>.cls-1{fill:#000100;}</style></defs><title>MK Logo B</title><path class="cls-1" d="M105.37,90.13V60.82L96.14,90.13H83.72L74.28,60.82V90.13H59.38V42.86H82.66L90.54,65.5,97.7,42.86h26.83V90.13Z"/><path class="cls-1" d="M187.28,90.13H167.05l-2.13-6.6H148l-2.06,6.6H130.21l17.46-47.27h22.08ZM151.22,73.45h10.51l-5.25-16.4Z"/><path class="cls-1" d="M227.81,68.69a19.48,19.48,0,0,1,2-.07c6.68,0,9.16,3.06,10.94,9.87,1.2,4.68,2.05,8.09,5.39,11.64H224.83a20.29,20.29,0,0,1-3.91-7.95c-.71-2.41-1.56-6.25-2.2-8S217.37,72,215.88,72h-4.11V90.13H192.6V42.86h28.68c15.4,0,21.93,5.32,21.93,12.78C243.21,61.39,239.94,67.35,227.81,68.69Zm-8.88-12.42h-7.16v7.88h6.46c3.61,0,5.82-1.56,5.82-4.11C224.05,57.91,222.41,56.27,218.93,56.27Z"/><path class="cls-1" d="M251.45,90.13V42.86h19.16V59.75l12.07-16.89h20.86L289.49,62.09l14.55,28H281.47l-7-14.83-3.9,5.46v9.37Z"/><path class="cls-1" d="M331,91c-18,0-27.39-11.5-27.39-24.49S313,42,331,42s27.4,11.5,27.4,24.48S349,91,331,91Zm0-35.34c-5.68,0-7.52,5.25-7.52,10.85s1.84,10.86,7.52,10.86,7.52-5.25,7.52-10.86S336.69,55.64,331,55.64Z"/><path class="cls-1" d="M397,90.13h-20.3l-18-47.27H379.7l8.59,26.33,8.59-26.33h16.46Z"/><path class="cls-1" d="M466,90.13H445.78l-2.13-6.6h-17l-2.06,6.6H408.94L426.4,42.86h22.08ZM430,73.45h10.51l-5.25-16.4Z"/><path class="cls-1" d="M500.93,63.37c0-4.68-2.49-7.73-6.67-7.73-5.68,0-7.53,5.25-7.53,10.85s1.63,10.86,7.67,10.86c5,0,7-3.69,7.59-7.87L516,73c-.56,9.37-8.73,18-23.13,18-18.25,0-26.12-10.43-26.12-24.49,0-13,8.73-24.48,26.76-24.48,12.63,0,20.86,6,21.5,18.88Zm1.35-23.63H484.75l-5.12-8.31h12.14l1.78,4.69,1.84-4.69h12.14Z"/><path class="cls-1" d="M522.37,90.13V42.86h41V55.78H541.53v5.11h17.1V71.53h-17.1v5.68h22.21V90.13Z"/><path class="cls-1" d="M607,90.13h-20.3l-18-47.27h21.08l8.59,26.33L607,42.86h16.47Z"/><path class="cls-1" d="M629,90.13V42.86h19.17V90.13Z"/><path class="cls-1" d="M689.09,63.37c0-4.68-2.48-7.73-6.67-7.73-5.68,0-7.52,5.25-7.52,10.85s1.63,10.86,7.66,10.86c5,0,7-3.69,7.59-7.87l14,3.54c-.57,9.37-8.73,18-23.14,18-18.24,0-26.12-10.43-26.12-24.49,0-13,8.73-24.48,26.76-24.48,12.63,0,20.86,6,21.5,18.88Zm-2-23.63h-12l2.91-8.8h16Z"/></svg>